<?xml version="1.0" encoding="UTF-8"?>
<svg width="42px" height="80px" viewBox="0 0 42 80" version="1.1" xmlns="http://www.w3.org/2000/svg" xmlns:xlink="http://www.w3.org/1999/xlink">
    <!-- Generator: Sketch 43.2 (39069) - http://www.bohemiancoding.com/sketch -->
    <title>Page 1</title>
    <desc>Created with Sketch.</desc>
    <defs></defs>
    <g id="Page-1" stroke="none" stroke-width="1" fill="none" fill-rule="evenodd">
        <g id="Desktop-HD-Copy" transform="translate(-1046.000000, -295.000000)" fill="#55BDE5">
            <path d="M1083.88423,295.962977 C1083.60737,295.440655 1083.08854,295.087012 1082.49874,295.013724 C1081.90778,294.940436 1081.32148,295.163789 1080.92596,295.609334 C1080.6584,295.909466 1074.37308,303.011421 1073.28307,309.436334 C1071.28335,308.105517 1068.87067,307.473845 1066.96634,307.473845 C1065.03526,307.473845 1062.72611,308.364934 1060.74501,310.063354 C1060.7229,309.886532 1060.69964,309.70971 1060.67288,309.531725 C1059.62707,303.083545 1053.27428,295.909466 1053.00672,295.609334 C1052.6112,295.168443 1052.0249,294.945089 1051.43394,295.013724 C1050.84415,295.087012 1050.32532,295.440655 1050.04845,295.962977 C1049.84371,296.345704 1045.09511,305.356636 1046.15372,311.8909 C1046.73537,315.466888 1048.08596,318.665967 1049.87163,320.775033 C1047.94869,324.296346 1046.90405,328.213182 1046.90405,331.953196 C1046.90405,332.134671 1046.9308,332.312656 1046.98548,332.484824 L1054.16537,355.910224 L1054.3515,357.791283 C1053.49298,359.095343 1052.98811,360.658821 1052.98811,362.335138 C1052.98811,365.652873 1054.95176,368.515758 1057.77393,369.832615 L1057.77393,373.18176 C1057.77393,374.186852 1058.58708,375 1059.59101,375 L1066.85234,375 C1066.89422,375 1066.93493,374.990694 1066.97565,374.98604 C1067.01636,374.990694 1067.05708,375 1067.09779,375 L1074.35912,375 C1075.36421,375 1076.17736,374.186852 1076.17736,373.18176 L1076.17736,369.832615 C1078.99953,368.515758 1080.96667,365.652873 1080.96667,362.335138 C1080.96667,360.658821 1080.46296,359.095343 1079.59863,357.791283 L1079.78592,355.910224 L1086.96466,332.484824 C1087.01933,332.312656 1087.04725,332.134671 1087.04725,331.953196 C1087.04725,328.213182 1086.00144,324.291693 1084.07967,320.775033 C1085.86068,318.661314 1087.21477,315.462235 1087.79176,311.886247 C1088.83757,305.356636 1084.08897,296.345704 1083.88423,295.962977 Z M1072.82356,313.967393 C1073.75072,315.366845 1073.76933,317.202534 1072.87824,319.42444 C1067.71202,325.586447 1066.44402,330.198937 1066.394,333.175825 C1063.64512,331.53906 1059.85508,327.91305 1059.85508,320.384163 C1059.85508,314.294281 1064.48037,311.109161 1066.96169,311.109161 C1068.61125,311.109161 1071.5195,311.995597 1072.82356,313.967393 Z M1065.02595,371.369336 L1061.39994,371.369336 L1061.39994,367.992272 L1065.02595,367.992272 L1065.02595,371.369336 Z M1072.53274,371.369336 L1068.90673,371.369336 L1068.90673,367.992272 L1072.53274,367.992272 L1072.53274,371.369336 Z M1076.04591,365.529563 C1075.78649,364.847869 1075.12806,364.356956 1074.35098,364.356956 L1067.08849,364.356956 C1067.04777,364.356956 1067.00706,364.366262 1066.96634,364.370915 C1066.92563,364.366262 1066.88491,364.356956 1066.84419,364.356956 L1059.5817,364.356956 C1058.80462,364.356956 1058.15084,364.843216 1057.89143,365.529563 C1057.10155,364.697803 1056.61529,363.575217 1056.61529,362.339791 C1056.61529,359.777038 1058.70109,357.691239 1061.26384,357.691239 L1072.67815,357.691239 C1075.2409,357.691239 1077.3267,359.777038 1077.3267,362.339791 C1077.32205,363.575217 1076.83579,364.697803 1076.04591,365.529563 Z M1084.19367,311.309249 C1083.64343,314.703763 1082.27073,317.698101 1080.61652,319.120818 C1079.93483,319.702469 1079.78592,320.697091 1080.25822,321.460217 C1082.23467,324.63254 1083.3433,328.25855 1083.39797,331.693779 L1081.72631,337.156643 C1081.72631,337.106621 1081.73445,337.061252 1081.73445,337.01123 C1081.73445,334.970799 1080.08024,333.321238 1078.04446,333.321238 C1076.00519,333.321238 1074.35563,334.975453 1074.35563,337.01123 C1074.35563,339.050497 1076.00868,340.700059 1078.04446,340.700059 C1079.36713,340.700059 1080.52578,340.000915 1081.17607,338.955107 L1076.29137,354.900479 C1075.19554,354.36885 1073.97291,354.060575 1072.67815,354.060575 L1061.25918,354.060575 C1059.96327,354.060575 1058.7418,354.36885 1057.64597,354.900479 L1052.76127,338.955107 C1053.41155,340.000915 1054.5702,340.700059 1055.89171,340.700059 C1057.93214,340.700059 1059.5817,339.047007 1059.5817,337.01123 C1059.5817,334.970799 1057.92749,333.321238 1055.89171,333.321238 C1053.85593,333.321238 1052.20288,334.975453 1052.20288,337.01123 C1052.20288,337.061252 1052.20637,337.106621 1052.21103,337.156643 L1050.53936,331.693779 C1050.59404,328.253897 1051.70266,324.63254 1053.67911,321.460217 C1054.15141,320.697091 1054.00135,319.707122 1053.32082,319.120818 C1051.6666,317.698101 1050.29391,314.708416 1049.74366,311.313903 C1049.18063,307.833305 1050.83949,303.102158 1052.06561,300.225314 C1053.88385,302.634511 1056.5199,306.628125 1057.08759,310.122682 C1057.26441,311.226655 1057.35049,312.353894 1057.33304,313.471827 C1057.32839,313.767305 1057.40517,314.048824 1057.53313,314.303587 C1056.71882,316.026436 1056.22442,318.062214 1056.22442,320.384163 C1056.22442,335.011515 1068.25644,337.915115 1068.37975,337.941871 C1068.51121,337.974444 1068.64731,337.98724 1068.77993,337.98724 C1069.35227,337.98724 1069.90135,337.715027 1070.24685,337.242727 C1070.67495,336.656423 1070.71101,335.870031 1070.34224,335.247665 C1070.31549,335.20695 1068.17036,330.589806 1075.83186,321.560261 C1075.95052,321.419502 1076.04591,321.264783 1076.11803,321.097267 C1077.5454,317.738816 1077.30925,315.199329 1076.59964,313.409008 C1076.58684,312.317832 1076.66827,311.213859 1076.8451,310.118029 C1077.4093,306.632778 1080.04883,302.639164 1081.86707,300.225314 C1083.09784,303.097505 1084.75671,307.828652 1084.19367,311.309249 Z" id="Page-1"></path>
        </g>
    </g>
</svg>