<?xml version="1.0" encoding="UTF-8"?>
<svg width="80px" height="80px" viewBox="0 0 80 80" version="1.1" xmlns="http://www.w3.org/2000/svg" xmlns:xlink="http://www.w3.org/1999/xlink">
    <!-- Generator: Sketch 43.2 (39069) - http://www.bohemiancoding.com/sketch -->
    <title>Group</title>
    <desc>Created with Sketch.</desc>
    <defs></defs>
    <g id="Page-1" stroke="none" stroke-width="1" fill="none" fill-rule="evenodd">
        <g id="Desktop-HD-Copy" transform="translate(-1026.000000, -175.000000)" fill="#F44C4C">
            <g id="Group" transform="translate(1026.000000, 175.000000)">
                <path d="M79.6951345,13.8690909 C79.22968,10.4378182 77.3082254,6.30690909 73.3882254,4.92072727 C71.9002254,4.38545455 70.36568,4.38545455 69.3431345,4.45381818 C65.5700436,4.624 61.7969527,5.84 58.6042254,7.92581818 C53.9569527,3.06763636 47.3082254,0 39.9394982,0 C32.5649527,0 25.9162254,3.06763636 21.2747709,7.92581818 C18.0529527,5.83418182 14.2798618,4.61963636 10.5300436,4.448 C9.50749818,4.40290909 7.97295272,4.40290909 6.48495272,4.91490909 C2.54167999,6.30109091 0.643498176,10.432 0.17804363,13.8632727 C-0.162320006,16.3970909 0.0529527211,18.8916364 0.263861812,21.3003636 C0.348225448,22.1527273 0.410770903,23.0050909 0.479134539,23.8807273 C0.586770903,25.5389091 0.564952721,27.2669091 0.564952721,28.9483636 C0.564952721,31.6523636 0.541679994,34.4654545 0.967861812,37.2552727 C1.82022545,42.9425455 4.54749818,47.3745455 8.40495272,49.4036364 C10.0645891,50.2778182 12.0078618,50.7214545 14.0529527,50.7214545 C15.3314982,50.7214545 16.6318618,50.5512727 17.9511345,50.2094545 C18.0587709,50.1876364 18.1445891,50.1469091 18.2464073,50.1018182 L12.36568,65.04 L27.9627709,53.7047273 C28.6434982,55.7498182 29.0478618,57.6698182 29.0478618,59.2043636 C29.0478618,66.1076364 19.5467709,69.0458182 19.4391345,69.0676364 L18.1387709,69.4545455 L18.1387709,79.8749091 L19.9511345,79.8749091 C43.9627709,79.8749091 51.3998618,59.1418182 52.9111345,53.84 L68.2973164,65.0283636 L62.5184073,50.3010909 C63.6500436,50.5570909 64.7569527,50.704 65.8420436,50.704 C67.8885891,50.704 69.8085891,50.256 71.4900436,49.3861818 C75.3649527,47.3629091 78.0762254,42.9309091 78.9285891,37.2378182 C79.3547709,34.448 79.3314982,31.6363636 79.3314982,28.9309091 C79.3314982,27.2727273 79.3314982,25.5229091 79.4173164,23.8632727 C79.4624073,23.0109091 79.5409527,22.1585455 79.6325891,21.3061818 C79.8202254,18.8741818 80.0529527,16.3796364 79.6951345,13.8690909 Z M17.0071345,46.6821818 C14.4500436,47.3629091 11.9787709,47.1694545 10.0820436,46.1701818 C7.29222545,44.6981818 5.22386181,41.1650909 4.54167999,36.6865455 C4.1547709,34.176 4.17804363,31.6189091 4.17804363,28.9309091 C4.17804363,27.2043636 4.17804363,25.4138182 4.09222545,23.6247273 C4.04713454,22.7272727 3.96713454,21.8341818 3.87695272,20.9425455 C3.66022545,18.6414545 3.47404363,16.4654545 3.76931636,14.3403636 C4.08640727,12.0785455 5.30240727,9.16509091 7.68931636,8.32872727 C8.39331636,8.096 9.20058908,8.01163636 10.3714982,8.05090909 C13.3547709,8.176 16.3365891,9.11854545 18.9387709,10.6923636 C16.1664073,14.6138182 14.5300436,19.3629091 14.5300436,24.4538182 C14.5300436,31.3570909 17.1322254,35.3003636 17.1947709,35.3629091 C17.3024073,35.5563636 20.02968,40.1585455 22.6725891,43.568 C22.7569527,43.6756364 22.8427709,43.8007273 22.9285891,43.9316364 C21.1205891,45.0618182 19.1380436,46.1250909 17.0071345,46.6821818 Z M20.28568,54.7781818 L22.8878618,48.1527273 C23.5933164,47.7672727 24.2522254,47.3861818 24.8718618,47.0050909 C25.4900436,48.0509091 26.0413164,49.136 26.5300436,50.2210909 L20.28568,54.7781818 Z M21.7809527,76.1876364 L21.7809527,72.0741818 C24.9344073,70.8349091 32.6667709,67.0050909 32.6667709,59.1810909 C32.6667709,54.3461818 29.5991345,46.6923636 25.5074982,41.392 C23.0129527,38.1527273 20.3089527,33.5956364 20.2464073,33.4661818 C20.2231345,33.4429091 18.1387709,30.2036364 18.1387709,24.4945455 C18.1387709,12.9876364 27.9162254,3.61309091 39.93368,3.61309091 C51.9511345,3.61309091 61.7285891,12.9876364 61.7285891,24.4945455 C61.7285891,29.5621818 59.9394982,32.8232727 59.9002254,32.8916364 L59.85368,32.9774545 C59.85368,32.9992727 59.7285891,33.232 59.4682254,33.7047273 C59.1889527,34.2385455 58.89368,34.7723636 58.5300436,35.3236364 C57.3373164,37.3236364 55.9962254,39.2887273 54.5474982,41.0967273 C51.6951345,44.7214545 50.2405891,49.5112727 49.6267709,52.0276364 C49.0754982,54.4378182 43.4507709,75.1025455 21.7809527,76.1876364 Z M53.9729527,50.1309091 C54.2914982,49.1694545 54.6784073,48.1469091 55.1438618,47.1243636 C56.0194982,47.6581818 56.9562254,48.1934545 57.9569527,48.6821818 L60.36568,54.7723636 L53.9729527,50.1309091 Z M75.9845891,20.96 C75.9002254,21.8574545 75.8144073,22.7490909 75.7693164,23.6247273 C75.6602254,25.4138182 75.6602254,27.1810909 75.6834982,28.9090909 C75.6834982,31.6130909 75.7067709,34.1469091 75.3198618,36.6865455 C74.63768,41.1650909 72.5707709,44.6981818 69.7809527,46.1701818 C67.8594982,47.1694545 65.4114982,47.3410909 62.8544073,46.6821818 C60.7234982,46.1250909 58.7409527,45.0618182 56.97368,43.9767273 C57.1205891,43.7614545 57.2689527,43.5505455 57.42168,43.3410909 C58.9562254,41.4036364 60.3831345,39.312 61.6384073,37.2276364 C62.0253164,36.6298182 62.3831345,36.0116364 62.6842254,35.3978182 C62.8994982,35.0109091 63.0245891,34.7389091 63.06968,34.6530909 C63.3489527,34.1410909 65.3489527,30.3069091 65.3489527,24.5105455 C65.3489527,19.4196364 63.7285891,14.6705455 60.9387709,10.7490909 C63.5409527,9.16945455 66.5184073,8.23854545 69.5074982,8.10763636 C70.6551345,8.04509091 71.5074982,8.15272727 72.18968,8.38545455 C74.5751345,9.216 75.7911345,12.1585455 76.10968,14.3970909 C76.3874982,16.4654545 76.1954982,18.6647273 75.9845891,20.96 Z" id="Fill-1"></path>
                <path d="M32.7330909,31.8414545 C32.7330909,35.4778182 27.2785455,35.4778182 27.2785455,31.8414545 C27.2785455,28.2050909 32.7330909,28.2050909 32.7330909,31.8414545" id="Fill-2"></path>
                <path d="M52.7214545,31.8414545 C52.7214545,35.4778182 47.2669091,35.4778182 47.2669091,31.8414545 C47.2669091,28.2050909 52.7214545,28.2050909 52.7214545,31.8414545" id="Fill-3"></path>
            </g>
        </g>
    </g>
</svg>